<?xml version="1.0" standalone="no"?>
<!DOCTYPE svg PUBLIC "-//W3C//DTD SVG 20010904//EN"
 "http://www.w3.org/TR/2001/REC-SVG-20010904/DTD/svg10.dtd">
<svg version="1.0" xmlns="http://www.w3.org/2000/svg"
 width="512.000000pt" height="512.000000pt" viewBox="0 0 512.000000 512.000000"
 preserveAspectRatio="xMidYMid meet">
<metadata>
Created by potrace 1.14, written by Peter Selinger 2001-2017
</metadata>
<g transform="translate(0.000000,512.000000) scale(0.100000,-0.100000)"
fill="#000000" stroke="none">
<path d="M2720 5097 c-32 -33 -35 -66 -7 -99 19 -24 31 -28 95 -33 82 -6 202
-42 269 -82 108 -63 208 -181 256 -303 27 -70 36 -112 42 -205 6 -87 49 -121
117 -91 28 13 40 59 34 131 -32 380 -323 671 -701 701 -77 6 -82 5 -105 -19z"/>
<path d="M1872 5038 c-187 -28 -310 -229 -248 -408 14 -43 11 -42 -24 10 -103
153 -151 201 -228 230 -178 67 -369 -31 -416 -214 -17 -63 -12 -138 10 -193
16 -38 104 -169 176 -263 l37 -48 -52 34 c-66 43 -115 58 -194 57 -153 -2
-287 -133 -297 -290 -7 -100 16 -147 177 -376 81 -115 147 -210 147 -213 0 -3
-12 6 -27 20 -40 37 -152 70 -217 63 -110 -11 -206 -77 -258 -177 -33 -64 -33
-205 -1 -267 20 -36 155 -229 703 -1003 64 -91 276 -390 470 -665 194 -275
373 -526 397 -557 101 -133 233 -237 410 -322 100 -49 102 -51 160 -133 151
-218 216 -304 234 -314 18 -9 181 -5 199 6 3 2 43 6 90 10 47 4 87 8 90 10 3
2 34 6 70 9 67 7 119 13 180 21 19 2 64 7 100 10 36 4 76 8 90 10 31 4 136 17
255 30 118 13 142 15 185 20 49 6 107 12 185 20 28 3 59 7 70 9 12 2 54 7 96
10 41 3 83 8 94 10 11 2 52 7 90 10 39 4 81 9 95 11 14 2 50 7 80 10 30 3 69
8 85 10 17 3 54 7 83 10 65 6 90 19 98 49 7 29 -2 46 -75 147 -50 69 -138 193
-212 298 -63 89 -231 328 -413 586 -215 304 -214 301 -178 385 27 62 67 206
91 325 40 199 49 308 45 540 -1 110 -5 216 -8 235 -2 19 -7 85 -11 145 -3 61
-8 135 -10 165 -2 30 -7 96 -10 145 -3 50 -8 117 -10 150 -5 60 -10 140 -20
315 -3 52 -8 118 -10 145 -3 28 -7 91 -10 140 -8 113 -17 149 -54 207 -78 122
-239 169 -375 109 -62 -27 -131 -100 -150 -159 -9 -26 -43 -198 -76 -382 -33
-184 -64 -345 -68 -357 -4 -12 -46 -49 -94 -82 l-87 -60 -38 55 c-21 31 -47
67 -58 82 -15 19 -485 682 -555 782 -6 8 -56 78 -110 155 -55 77 -119 167
-142 200 -252 366 -305 429 -383 459 -56 22 -123 31 -173 24z"/>
<path d="M2716 4651 c-24 -27 -26 -85 -4 -108 9 -8 40 -19 68 -24 89 -14 150
-81 150 -164 0 -43 27 -75 67 -81 26 -4 38 0 59 21 25 25 26 32 22 90 -13 154
-128 270 -281 282 -54 5 -64 3 -81 -16z"/>
<path d="M80 1805 c-21 -22 -24 -36 -28 -139 -19 -491 298 -950 763 -1104 116
-38 226 -58 288 -53 27 2 57 38 57 70 0 52 -26 69 -125 86 -227 39 -393 124
-548 278 -98 98 -165 202 -216 332 -50 128 -69 238 -65 389 2 113 1 120 -21
142 -32 32 -75 31 -105 -1z"/>
<path d="M521 1764 c-21 -27 -25 -56 -21 -169 7 -242 166 -479 390 -582 101
-47 219 -71 263 -54 45 17 58 73 29 119 -5 7 -47 22 -94 32 -136 30 -212 71
-298 163 -94 101 -143 233 -140 377 3 99 3 97 -20 120 -30 30 -83 27 -109 -6z"/>
</g>
</svg>
